<svg xmlns="http://www.w3.org/2000/svg" viewBox="0 0 193 196" aria-hidden="true">
  <path d="M 11.01 57.50 L 6.01 57.89 L 5.59 57.43 L 9.01 53.81 L 26.01 36.57 L 36.74 25.43 L 53.01 8.83 L 56.01 6.26 L 59.01 4.27 L 61.01 3.23 L 64.01 2.04 L 65.01 1.84 L 67.01 1.13 L 70.01 0.67 L 72.01 0.23 L 74.01 0.08 L 186.01 0.00 L 186.62 0.43 L 186.08 1.43 L 177.43 10.43 L 165.01 22.98 L 158.01 30.32 L 153.01 34.71 L 152.01 35.27 L 150.01 36.76 L 149.01 37.31 L 147.01 38.72 L 146.01 39.20 L 144.01 40.50 L 140.01 42.61 L 136.01 44.26 L 135.01 44.80 L 134.01 45.06 L 133.01 45.58 L 131.01 46.14 L 130.01 46.66 L 122.01 48.75 L 116.01 49.74 L 109.01 50.17 L 103.01 50.72 L 93.01 51.20 L 88.01 51.69 L 77.01 52.21 L 72.01 52.75 L 63.01 53.15 L 58.01 53.63 L 49.01 54.14 L 44.01 54.67 L 37.01 55.09 L 32.01 55.58 L 25.01 56.03 L 20.01 56.67 L 13.01 57.19 Z M 91.01 102.50 L 90.01 102.76 L 86.01 103.00 L 25.01 103.05 L 18.01 102.97 L 16.95 102.43 L 20.06 99.43 L 47.01 72.09 L 48.01 71.18 L 51.01 69.04 L 53.01 67.99 L 54.01 67.68 L 55.01 67.16 L 59.01 66.12 L 63.01 65.85 L 130.01 65.89 L 130.96 66.43 L 126.32 71.43 L 100.01 97.87 L 99.01 98.73 L 96.01 100.66 L 95.01 101.03 L 94.01 101.60 Z M 1.01 177.48 L 0.05 176.43 L 0.00 174.43 L 0.12 163.43 L 0.17 127.43 L 0.56 124.43 L 0.81 123.43 L 1.30 122.43 L 1.59 121.43 L 2.22 120.43 L 2.65 119.43 L 4.22 117.43 L 5.20 116.43 L 7.01 115.05 L 9.01 114.07 L 10.01 113.76 L 11.01 113.25 L 12.01 113.00 L 14.01 112.78 L 23.01 112.62 L 61.01 112.64 L 61.99 113.43 L 61.25 118.43 L 60.26 121.43 L 58.49 125.43 L 57.47 127.43 L 56.77 128.43 L 56.32 129.43 L 53.12 133.43 L 51.28 135.43 L 42.01 144.67 L 37.01 149.32 L 33.19 153.43 L 21.01 165.32 L 16.97 169.43 L 13.01 172.57 L 10.00 174.43 L 7.01 175.81 L 5.01 176.57 L 4.01 176.85 L 2.01 177.17 Z" transform="scale(1.03419187 1.09872216)" fill="currentColor" fill-rule="evenodd"/>
</svg>
