<svg xmlns="http://www.w3.org/2000/svg" viewBox="-8.00 -8.00 760.69 211.00" role="img" aria-labelledby="title" shape-rendering="geometricPrecision" color="#F7F8FB">
  <title id="title">Fluttera Primary Logo</title>
  <g fill="currentColor" fill-rule="evenodd">
    <path d="M 11.01 57.50 L 6.01 57.89 L 5.59 57.43 L 9.01 53.81 L 26.01 36.57 L 36.74 25.43 L 53.01 8.83 L 56.01 6.26 L 59.01 4.27 L 61.01 3.23 L 64.01 2.04 L 65.01 1.84 L 67.01 1.13 L 70.01 0.67 L 72.01 0.23 L 74.01 0.08 L 186.01 0.00 L 186.62 0.43 L 186.08 1.43 L 177.43 10.43 L 165.01 22.98 L 158.01 30.32 L 153.01 34.71 L 152.01 35.27 L 150.01 36.76 L 149.01 37.31 L 147.01 38.72 L 146.01 39.20 L 144.01 40.50 L 140.01 42.61 L 136.01 44.26 L 135.01 44.80 L 134.01 45.06 L 133.01 45.58 L 131.01 46.14 L 130.01 46.66 L 122.01 48.75 L 116.01 49.74 L 109.01 50.17 L 103.01 50.72 L 93.01 51.20 L 88.01 51.69 L 77.01 52.21 L 72.01 52.75 L 63.01 53.15 L 58.01 53.63 L 49.01 54.14 L 44.01 54.67 L 37.01 55.09 L 32.01 55.58 L 25.01 56.03 L 20.01 56.67 L 13.01 57.19 Z M 91.01 102.50 L 90.01 102.76 L 86.01 103.00 L 25.01 103.05 L 18.01 102.97 L 16.95 102.43 L 20.06 99.43 L 47.01 72.09 L 48.01 71.18 L 51.01 69.04 L 53.01 67.99 L 54.01 67.68 L 55.01 67.16 L 59.01 66.12 L 63.01 65.85 L 130.01 65.89 L 130.96 66.43 L 126.32 71.43 L 100.01 97.87 L 99.01 98.73 L 96.01 100.66 L 95.01 101.03 L 94.01 101.60 Z M 1.01 177.48 L 0.05 176.43 L 0.00 174.43 L 0.12 163.43 L 0.17 127.43 L 0.56 124.43 L 0.81 123.43 L 1.30 122.43 L 1.59 121.43 L 2.22 120.43 L 2.65 119.43 L 4.22 117.43 L 5.20 116.43 L 7.01 115.05 L 9.01 114.07 L 10.01 113.76 L 11.01 113.25 L 12.01 113.00 L 14.01 112.78 L 23.01 112.62 L 61.01 112.64 L 61.99 113.43 L 61.25 118.43 L 60.26 121.43 L 58.49 125.43 L 57.47 127.43 L 56.77 128.43 L 56.32 129.43 L 53.12 133.43 L 51.28 135.43 L 42.01 144.67 L 37.01 149.32 L 33.19 153.43 L 21.01 165.32 L 16.97 169.43 L 13.01 172.57 L 10.00 174.43 L 7.01 175.81 L 5.01 176.57 L 4.01 176.85 L 2.01 177.17 Z" transform="scale(1.03419187 1.09872216)"/>
    <path d="M 8.30 66.51 L 1.30 66.61 L 0.30 66.21 L 0.05 65.21 L 0.12 35.21 L 0.00 1.21 L 0.30 0.45 L 1.30 0.04 L 4.30 0.04 L 60.30 0.00 L 61.30 0.36 L 61.67 1.21 L 61.69 7.21 L 61.30 8.00 L 60.30 8.30 L 36.30 8.41 L 10.30 8.34 L 9.30 8.63 L 8.97 9.21 L 8.93 22.21 L 8.97 29.21 L 9.30 29.62 L 10.30 29.84 L 54.30 29.84 L 54.96 30.21 L 55.39 31.21 L 55.42 35.21 L 55.36 37.21 L 54.30 37.85 L 10.30 37.85 L 9.30 38.16 L 9.01 39.21 L 8.93 65.21 L 8.68 66.21 Z M 94.30 66.58 L 87.30 66.59 L 86.88 66.21 L 86.71 65.21 L 86.73 1.21 L 87.30 0.15 L 94.30 0.01 L 94.86 0.21 L 95.30 0.55 L 95.57 1.21 L 95.51 65.21 L 95.13 66.21 Z M 237.30 66.33 L 236.30 66.72 L 224.30 66.73 L 221.30 66.46 L 218.30 65.58 L 217.30 65.00 L 216.30 64.63 L 214.30 62.97 L 213.30 61.89 L 212.09 60.21 L 211.71 59.21 L 211.13 58.21 L 210.53 55.21 L 210.20 54.21 L 210.22 33.21 L 210.08 26.21 L 209.30 25.66 L 201.30 25.57 L 200.77 25.21 L 200.55 24.21 L 200.59 19.21 L 201.30 18.49 L 209.30 18.33 L 210.24 17.21 L 210.27 5.21 L 211.30 4.16 L 217.30 4.14 L 218.30 4.78 L 218.51 5.21 L 218.61 17.21 L 219.08 18.21 L 219.30 18.39 L 236.30 18.32 L 237.34 19.21 L 237.28 24.21 L 237.06 25.21 L 236.30 25.57 L 219.30 25.61 L 218.64 26.21 L 218.46 35.21 L 218.63 53.21 L 218.89 55.21 L 219.99 57.21 L 221.30 58.31 L 222.30 58.71 L 224.30 59.24 L 228.30 59.44 L 236.30 59.31 L 237.30 59.86 L 237.51 60.21 L 237.48 65.21 L 237.41 66.21 Z M 293.30 66.63 L 280.30 66.61 L 279.30 66.49 L 275.30 65.41 L 273.30 64.42 L 270.64 62.21 L 269.04 60.21 L 268.03 58.21 L 267.68 56.21 L 267.13 54.21 L 267.07 50.21 L 267.21 38.21 L 267.03 26.21 L 266.30 25.68 L 259.30 25.67 L 258.30 25.50 L 258.01 25.21 L 257.91 24.21 L 257.94 19.21 L 258.30 18.66 L 259.30 18.38 L 266.30 18.27 L 267.23 17.21 L 267.11 5.21 L 267.30 4.77 L 267.85 4.21 L 268.30 4.02 L 274.30 3.96 L 275.30 4.05 L 275.47 4.21 L 275.79 5.21 L 275.81 17.21 L 276.30 18.25 L 293.30 18.29 L 294.23 19.21 L 294.18 24.21 L 294.05 25.21 L 293.30 25.61 L 277.30 25.64 L 276.30 25.69 L 275.84 26.21 L 275.78 52.21 L 275.85 54.21 L 276.19 55.21 L 277.30 57.08 L 278.30 57.97 L 279.30 58.62 L 281.30 59.16 L 282.30 59.31 L 284.30 59.35 L 293.30 59.32 L 294.15 60.21 L 294.14 65.21 L 293.95 66.21 Z M 362.30 66.36 L 360.30 66.63 L 357.30 66.77 L 336.30 66.79 L 331.30 66.63 L 330.30 66.47 L 327.30 65.64 L 324.30 64.29 L 323.30 63.63 L 321.58 62.21 L 320.30 60.84 L 319.00 59.21 L 318.59 58.21 L 317.97 57.21 L 316.96 54.21 L 316.78 53.21 L 316.56 51.21 L 316.50 49.21 L 316.58 33.21 L 317.01 30.21 L 317.46 29.21 L 318.07 27.21 L 319.16 25.21 L 319.88 24.21 L 322.30 21.77 L 323.30 21.01 L 324.30 20.54 L 325.30 19.87 L 327.30 19.03 L 328.30 18.74 L 332.30 18.10 L 353.30 18.04 L 355.30 18.22 L 358.30 18.76 L 361.30 19.83 L 362.30 20.52 L 363.30 21.00 L 365.79 23.21 L 366.66 24.21 L 367.33 25.21 L 368.46 27.21 L 369.06 29.21 L 369.49 30.21 L 369.83 32.21 L 369.98 35.21 L 369.96 45.21 L 369.30 45.87 L 326.30 45.94 L 325.57 46.21 L 325.30 46.64 L 325.14 47.21 L 325.49 51.21 L 325.83 53.21 L 326.15 54.21 L 327.30 56.12 L 328.29 57.21 L 330.30 58.64 L 333.30 59.34 L 335.30 59.46 L 355.30 59.35 L 366.30 58.96 L 366.61 59.21 L 366.88 60.21 L 366.65 65.21 L 366.30 65.57 Z M 404.30 66.55 L 397.30 66.56 L 396.64 66.21 L 396.28 65.21 L 396.39 64.21 L 396.40 43.21 L 396.30 25.21 L 396.15 19.21 L 396.30 19.01 L 397.30 18.51 L 404.30 18.57 L 404.83 19.21 L 404.82 22.21 L 404.97 23.21 L 405.30 23.54 L 407.30 21.81 L 410.30 19.91 L 413.30 18.85 L 416.50 18.21 L 419.30 17.88 L 423.30 17.84 L 429.30 18.00 L 430.30 18.35 L 430.70 19.21 L 430.64 25.21 L 430.30 25.58 L 429.30 25.69 L 418.30 25.68 L 415.30 25.94 L 411.30 27.11 L 409.34 28.21 L 408.30 28.98 L 407.10 30.21 L 405.88 32.21 L 405.29 34.21 L 405.09 36.21 L 405.18 55.21 L 405.09 65.21 L 404.80 66.21 Z M 502.30 66.45 L 501.30 66.61 L 495.30 66.64 L 494.37 66.21 L 494.04 65.21 L 494.01 63.21 L 493.30 62.75 L 492.30 63.52 L 490.30 64.73 L 488.30 65.55 L 484.30 66.53 L 479.30 66.76 L 463.30 66.70 L 461.30 66.44 L 458.30 65.45 L 456.30 64.40 L 453.76 62.21 L 452.04 60.21 L 451.61 59.21 L 450.99 58.21 L 449.99 54.21 L 449.91 52.21 L 450.00 49.21 L 451.03 45.21 L 451.61 44.21 L 452.01 43.21 L 453.75 41.21 L 455.30 39.86 L 457.30 38.80 L 458.30 38.49 L 459.30 37.99 L 464.30 37.23 L 493.30 37.26 L 493.91 36.21 L 493.90 32.21 L 493.80 31.21 L 493.49 30.21 L 492.30 28.15 L 491.30 27.19 L 489.30 26.18 L 488.30 25.84 L 487.30 25.70 L 484.30 25.52 L 456.30 25.66 L 455.17 25.21 L 454.99 24.21 L 455.04 20.21 L 455.10 19.21 L 455.30 19.00 L 456.30 18.69 L 464.30 18.05 L 487.30 18.06 L 492.30 18.80 L 494.30 19.70 L 496.30 20.88 L 498.30 22.68 L 499.71 24.21 L 501.30 27.27 L 501.67 28.21 L 502.00 30.21 L 502.59 32.21 L 502.69 33.21 L 502.65 65.21 L 502.54 66.21 Z M 176.30 66.42 L 175.30 66.63 L 169.30 66.60 L 168.72 66.21 L 168.41 65.21 L 168.28 63.21 L 167.30 62.38 L 164.30 64.48 L 163.30 64.78 L 161.30 65.63 L 159.30 66.02 L 158.30 66.41 L 157.30 66.61 L 151.30 66.80 L 140.30 66.81 L 138.30 66.68 L 136.30 66.35 L 135.30 65.90 L 133.30 65.33 L 130.30 63.66 L 128.63 62.21 L 126.87 60.21 L 126.29 59.21 L 124.96 56.21 L 124.65 54.21 L 124.00 52.21 L 123.95 19.21 L 124.30 18.72 L 125.30 18.47 L 132.30 18.44 L 132.86 19.21 L 132.91 51.21 L 133.06 52.21 L 133.49 53.21 L 134.08 55.21 L 134.78 56.21 L 136.30 57.66 L 137.30 58.35 L 138.30 58.71 L 142.30 59.35 L 148.30 59.41 L 156.30 59.31 L 161.30 58.46 L 162.30 57.89 L 163.30 57.54 L 165.30 56.35 L 166.50 55.21 L 167.30 54.13 L 167.84 53.21 L 167.92 52.21 L 167.91 19.21 L 168.30 18.54 L 169.30 18.31 L 175.30 18.39 L 176.30 18.61 L 176.69 19.21 L 176.71 52.21 L 176.69 65.21 L 176.51 66.21 Z M 361.47 38.21 L 361.53 34.21 L 361.42 33.21 L 360.49 30.21 L 359.89 29.21 L 359.17 28.21 L 358.11 27.21 L 357.30 26.67 L 355.30 25.86 L 353.30 25.57 L 347.30 25.48 L 334.30 25.58 L 332.30 25.73 L 330.30 26.10 L 328.50 27.21 L 327.30 28.38 L 326.70 29.21 L 326.14 30.21 L 325.84 31.21 L 325.35 34.21 L 325.22 37.21 L 325.34 38.21 L 326.30 38.65 L 340.30 38.77 L 360.30 38.70 L 361.30 38.39 Z M 484.55 59.21 L 488.30 58.53 L 489.15 58.21 L 490.30 57.66 L 492.30 56.37 L 493.36 55.21 L 493.87 54.21 L 493.96 45.21 L 493.30 44.20 L 475.30 44.38 L 465.30 44.32 L 462.30 44.87 L 460.30 46.24 L 459.05 48.21 L 458.78 50.21 L 458.75 52.21 L 458.87 54.21 L 459.16 55.21 L 460.30 57.06 L 461.30 58.00 L 462.30 58.64 L 465.30 59.50 L 483.30 59.41 Z" transform="translate(242.00 64.10)"/>
  </g>
</svg>
